<svg width="31" height="20" viewBox="0 0 31 20" fill="none" xmlns="http://www.w3.org/2000/svg">
<path d="M8.525 9.9995C10.6616 9.9995 12.4 8.20589 12.4 6.00149C12.4 3.79708 10.6616 2.00347 8.525 2.00347C6.38842 2.00347 4.65 3.79708 4.65 6.00149C4.65 8.20589 6.38842 9.9995 8.525 9.9995ZM25.575 3.60268H14.725C14.2968 3.60268 13.95 3.9605 13.95 4.40228V11.5987H3.1V1.20387C3.1 0.762089 2.75319 0.404266 2.325 0.404266H0.775C0.346812 0.404266 0 0.762089 0 1.20387V18.7951C0 19.2369 0.346812 19.5947 0.775 19.5947H2.325C2.75319 19.5947 3.1 19.2369 3.1 18.7951V16.3963H27.9V18.7951C27.9 19.2369 28.2468 19.5947 28.675 19.5947H30.225C30.6532 19.5947 31 19.2369 31 18.7951V9.1999C31 6.10844 28.5713 3.60268 25.575 3.60268Z" fill="#545454"/>
</svg>
