<svg width="1366" height="443" viewBox="0 0 1366 443" fill="none" xmlns="http://www.w3.org/2000/svg">
<g clip-path="url(#clip0_13_1171)">
<path d="M1299.49 185.724H1223.55V407.325H1299.49V185.724Z" fill="#231F20"/>
<path d="M1290.68 170.069H1232.37V229.175H1290.68V170.069Z" fill="#231F20"/>
<path d="M1286.88 158.158H1236.18V172.764H1286.88V158.158Z" fill="#231F20"/>
<path d="M1274.35 145.845H1248.7V160.237H1274.35V145.845Z" fill="#231F20"/>
<path d="M1263.5 94.1816H1259.55V170.069H1263.5V94.1816Z" fill="#231F20"/>
<path d="M1297.09 227.753H1269.4V355.19H1297.09V227.753Z" fill="#231F20"/>
<path d="M417.526 61.895V106.816C414.991 104.603 413.288 106.541 411.588 109.039V132.609C409.883 132.891 408.622 134.276 407.35 135.939V157.289C405.645 158.124 403.947 158.954 402.258 160.066V199.997C400.554 200.552 398.865 201.662 397.167 202.772V253.237C393.343 252.96 389.952 254.9 386.974 257.403V315.354C383.581 315.914 380.606 317.293 377.633 318.685V354.73C374.239 355.012 370.848 355.845 367.871 356.677V403.268H485.02V356.677C480.773 355.569 476.951 354.73 472.288 354.73V318.685C468.466 316.465 464.228 314.526 459.123 314.802V256.013C455.312 253.237 451.491 250.744 446.399 252.407V202.77C443.006 200.549 439.603 198.607 435.786 199.164V160.064C432.806 158.124 429.843 156.458 426.449 156.458V115.418C425.167 113.753 423.476 112.365 422.202 112.092V61.8973H417.526V61.895Z" fill="#231F20"/>
<path d="M293.391 169.593H209.891V405.306H293.391V169.593Z" fill="#231F20"/>
<path d="M293.391 144.709H224.426V221.166H293.391V144.709Z" fill="#231F20"/>
<path d="M269.459 112.14C256.329 112.14 245.074 117.571 235.229 127.065V193.569H288.227L288.702 116.202C281.66 113.496 275.566 112.138 269.459 112.138V112.14ZM264.77 127.065H268.525V142.898H264.77V127.065ZM283.066 127.972H284.942V136.566H283.066V127.972ZM239.911 129.329H259.142V141.094H239.911V129.329Z" fill="#231F20"/>
<path d="M278.38 43.8206H271.81V138.826H278.38V43.8206Z" fill="#231F20"/>
<path d="M1086.72 154.691C1054.34 179.82 964.979 226.157 973.631 389.75H1085.88L1086.72 154.691ZM1082.26 164.741L1081.7 382.77H981.173C973.629 231.185 1053.49 188.197 1082.26 164.741H1082.26Z" fill="#231F20"/>
<path d="M1084.49 163.071H1075.55V167.814H1084.49V163.071Z" fill="#231F20"/>
<path d="M1085.05 180.937H1052.1V185.681H1085.05V180.937Z" fill="#231F20"/>
<path d="M1085.05 171.441H1066.33V176.193H1085.05V171.441Z" fill="#231F20"/>
<path d="M1084.22 200.198H1034.78V204.944H1084.22V200.198Z" fill="#231F20"/>
<path d="M1083.93 190.704H1042.33V195.448H1083.93V190.704Z" fill="#231F20"/>
<path d="M1086.44 218.067H1016.91V222.813H1086.44V218.067Z" fill="#231F20"/>
<path d="M1083.93 208.573H1023.89V213.316H1083.93V208.573Z" fill="#231F20"/>
<path d="M1085.88 237.052H1006.86V242.069H1085.88V237.052Z" fill="#231F20"/>
<path d="M1083.93 227.836H1009.93V232.577H1083.93V227.836Z" fill="#231F20"/>
<path d="M1082.82 255.187H995.691V259.942H1082.82V255.187Z" fill="#231F20"/>
<path d="M1085.32 245.705H999.328V250.448H1085.32V245.705Z" fill="#231F20"/>
<path d="M1084.22 273.058H988.709V278.079H1084.22V273.058Z" fill="#231F20"/>
<path d="M1083.93 263.851H991.784V268.594H1083.93V263.851Z" fill="#231F20"/>
<path d="M1085.05 291.2H983.409V295.952H1085.05V291.2Z" fill="#231F20"/>
<path d="M1084.49 281.713H985.637V286.461H1084.49V281.713Z" fill="#231F20"/>
<path d="M1085.32 310.185H979.775V314.936H1085.32V310.185Z" fill="#231F20"/>
<path d="M1083.37 300.701H982.847V305.446H1083.37V300.701Z" fill="#231F20"/>
<path d="M1085.05 328.054H976.43V332.807H1085.05V328.054Z" fill="#231F20"/>
<path d="M1082.82 318.567H978.94V323.31H1082.82V318.567Z" fill="#231F20"/>
<path d="M1083.93 346.762H976.983V351.79H1083.93V346.762Z" fill="#231F20"/>
<path d="M1083.93 337.268H979.222V342.294H1083.93V337.268Z" fill="#231F20"/>
<path d="M1082.53 364.633H978.385V369.659H1082.53V364.633Z" fill="#231F20"/>
<path d="M1084.77 355.135H980.34V360.16H1084.77V355.135Z" fill="#231F20"/>
<path d="M1085.05 373.838H974.748V378.864H1085.05V373.838Z" fill="#231F20"/>
<path d="M1130.28 385.289H938.725V397.292H1130.28V385.289Z" fill="#231F20"/>
<path d="M1086.72 104.446H1081.41V159.717H1086.72V104.446Z" fill="#231F20"/>
<path d="M867.738 212.391L820.107 251.857L821.305 409.714L871.067 409.481L868.953 275.584H860.213V251.625H868.358L867.738 212.391Z" fill="#231F20"/>
<path d="M867.74 179.272H863.539V218.733H867.74V179.272Z" fill="#231F20"/>
<path d="M892.324 152.173L939.958 202.747L938.762 405.049L889.014 404.744L891.119 233.158H899.868V202.446H891.721L892.324 152.173Z" fill="#231F20"/>
<path d="M896.541 109.719H892.324V160.291H896.541V109.719Z" fill="#231F20"/>
<path d="M809.213 300.617H773.285V421.005H809.213V300.617Z" fill="#231F20"/>
<path d="M805.04 292.097H777.449V324.217H805.04V292.097Z" fill="#231F20"/>
<path d="M803.242 285.633H779.258V293.573H803.242V285.633Z" fill="#231F20"/>
<path d="M797.32 278.942H785.18V286.757H797.32V278.942Z" fill="#231F20"/>
<path d="M792.187 250.867H790.311V292.097H792.187V250.867Z" fill="#231F20"/>
<path d="M808.073 323.44H794.972V392.68H808.073V323.44Z" fill="#231F20"/>
<path d="M1068.91 370.538H1053.11V403.208H1068.91V370.538Z" fill="#231F20"/>
<path d="M729.489 386.91V407.337H935.038V387.449C935.038 387.148 934.79 386.91 934.517 386.91H729.489Z" fill="#231F20"/>
<path d="M935.038 349.147H899.098V407.337H935.038V349.147Z" fill="#231F20"/>
<path d="M929.178 328.968L906.584 337.978V366.104L929.178 357.096V328.968Z" fill="#231F20"/>
<path d="M922.139 326.019L913.586 329.442V340.134L922.139 336.69V326.019Z" fill="#231F20"/>
<path d="M901.355 373.928L833.195 374.599L833.556 409.582L901.719 408.909L901.355 373.928Z" fill="#231F20"/>
<path d="M839.277 377.122H818.626V406.379H839.277V377.122Z" fill="#231F20"/>
<path d="M834.6 368.204H822.748V386.6H834.6V368.204Z" fill="#231F20"/>
<path d="M830.926 366.215H827.04V370.362H830.926V366.215Z" fill="#231F20"/>
<path d="M813.562 368.953H775.753V399.975H813.562V368.953Z" fill="#231F20"/>
<path d="M779.535 377.224H772.151V407.334H779.535V377.224Z" fill="#231F20"/>
<path d="M762.655 395.796V355.74H759.567V338.184L754.029 329.846H731.777L731.881 399.415L762.655 395.796Z" fill="#231F20"/>
<path d="M1377 398.014H932.889V407.337H1377V398.014Z" fill="#231F20"/>
<path d="M1059.06 355.99H1035.46V403.916H1059.06V355.99Z" fill="#231F20"/>
<path d="M1036.44 381.137H1024.73V403.784H1036.44V381.137Z" fill="#231F20"/>
<path d="M1051.93 342.185H1040.21V364.832H1051.93V342.185Z" fill="#231F20"/>
<path d="M1102.39 337.328H1066.97V403.75H1102.39V337.328Z" fill="#231F20"/>
<path d="M1073.52 319.046L1095.84 326.946V351.619L1073.52 343.716V319.046Z" fill="#231F20"/>
<path d="M1079.65 317.041L1088.11 320.038V329.389L1079.65 326.389V317.041Z" fill="#231F20"/>
<path d="M1170.59 288.096H1128.48V403.28H1170.59V288.096Z" fill="#231F20"/>
<path d="M1160.86 284.381H1138.22V291.026H1160.86V284.381Z" fill="#231F20"/>
<path d="M1162.37 278.074H1136.7V285.596H1162.37V278.074Z" fill="#231F20"/>
<path d="M1150.91 250.867H1148.16V279.647H1150.91V250.867Z" fill="#231F20"/>
<path d="M1158.44 272.947H1140.63V280.422H1158.44V272.947Z" fill="#231F20"/>
<path d="M1167.68 384.613H1154.96V400.105H1167.68V384.613Z" fill="#231F20"/>
<path d="M1219.28 332.229H1192.63V403.315H1219.28V332.229Z" fill="#231F20"/>
<path d="M1283.12 344.179H1267.11V401.585H1283.12V344.179Z" fill="#231F20"/>
<path d="M1314.11 349.464H1299.37V401.113H1314.11V349.464Z" fill="#231F20"/>
<path d="M1338.37 335.33H1317.57V403.009H1338.37V335.33Z" fill="#231F20"/>
<path d="M1213.5 323.422H1198.42V363.604H1213.5V323.422Z" fill="#231F20"/>
<path d="M1376.65 290.936H1341.76V404.693H1376.65V290.936Z" fill="#231F20"/>
<path d="M1372.11 282.885H1346.33V302.252H1372.11V282.885Z" fill="#231F20"/>
<path d="M1368.76 273.692H1349.7V287.989H1368.76V273.692Z" fill="#231F20"/>
<path d="M1360.19 256.732H1358.25V280.801H1360.19V256.732Z" fill="#231F20"/>
<path d="M970.837 362.501H941.55V404.693H970.837V362.501Z" fill="#231F20"/>
<path d="M821.64 369.152H809.963V417.356H821.64V369.152Z" fill="#231F20"/>
<path d="M1338.78 375.025H1331.49V413.301H1338.78V375.025Z" fill="#231F20"/>
<path d="M940.853 382.958H934.304V407.334H940.853V382.958Z" fill="#231F20"/>
<path d="M943.872 390.344H937.703V407.334H943.872V390.344Z" fill="#231F20"/>
<path d="M804.031 365.103H787.359V371.107H804.031V365.103Z" fill="#231F20"/>
<path d="M800.601 362.702H790.933V366.215H800.601V362.702Z" fill="#231F20"/>
<path d="M1021.16 379.116H1013.25V401.756H1021.16V379.116Z" fill="#231F20"/>
<path d="M1177.17 384.778H1170.59V400.273H1177.17V384.778Z" fill="#231F20"/>
<path d="M1272.3 382.051H1247.18V401.585H1272.3V382.051Z" fill="#231F20"/>
<path d="M1300.69 384.206H1282.25V400.879H1300.69V384.206Z" fill="#231F20"/>
<path d="M1377 424.072H722.35V443H1377V424.072Z" fill="#231F20"/>
<path d="M1178.52 386.94C1178.25 386.94 1178.04 387.241 1178.04 387.618V425.15C1178.04 425.522 1178.25 425.791 1178.52 425.791H1377V386.943H1178.52V386.94Z" fill="#231F20"/>
<path d="M1044.03 401.895H1043.95V435.953C1043.95 436.281 1044.13 436.557 1044.38 436.557H1178.73V401.895H1044.03Z" fill="#231F20"/>
<path d="M1178.73 382.123H1172.29V416.301H1178.73V382.123Z" fill="#231F20"/>
<path d="M1175.41 391.226H1169.31V425.423H1175.41V391.226Z" fill="#231F20"/>
<path d="M1102.25 375.968H1082.5V410.158H1102.25V375.968Z" fill="#231F20"/>
<path d="M1079.72 382.009H1059.97V416.206H1079.72V382.009Z" fill="#231F20"/>
<path d="M1057.48 382.444H1043.95V416.646H1057.48V382.444Z" fill="#231F20"/>
<path d="M1099.45 372.689H1085.69V379.347H1099.45V372.689Z" fill="#231F20"/>
<path d="M1096.63 370.066H1088.66V373.907H1096.63V370.066Z" fill="#231F20"/>
<path d="M1157.94 407.189V382.183H1155.41V371.213L1150.83 365.975H1132.47L1132.54 409.483L1157.94 407.189Z" fill="#231F20"/>
<path d="M1129.9 389.339H1121.8V421.637H1129.9V389.339Z" fill="#231F20"/>
<path d="M1123.42 393.421H1115.35V425.721H1123.42V393.421Z" fill="#231F20"/>
<path d="M1117.22 398.55H1109.11V430.853H1117.22V398.55Z" fill="#231F20"/>
<path d="M1119.38 384.475H1105.95V416.78H1119.38V384.475Z" fill="#231F20"/>
<path d="M734.791 396.124C734.516 396.124 734.305 396.422 734.305 396.758V434.299C734.305 434.667 734.516 434.972 734.791 434.972H1044.51C1044.76 434.972 1044.96 434.669 1044.96 434.299V396.145C1044.94 396.13 1044.92 396.122 1044.89 396.122H734.791V396.124Z" fill="#231F20"/>
<path d="M769.762 376.169H734.305V434.972H769.762V376.169Z" fill="#231F20"/>
<path d="M740.091 360.484L762.373 367.466V389.297L740.091 382.321V360.484Z" fill="#231F20"/>
<path d="M747.029 358.178L755.481 360.843V369.152L747.029 366.49V358.178Z" fill="#231F20"/>
<path d="M811.665 351.096H776.2V427.268H811.665V351.096Z" fill="#231F20"/>
<path d="M854.927 365.177H828.779V420.189H854.927V365.177Z" fill="#231F20"/>
<path d="M849.692 348.379H834.727V382.995H849.692V348.379Z" fill="#231F20"/>
<path d="M844.274 344.685H839.391V352.489H844.274V344.685Z" fill="#231F20"/>
<path d="M891.508 373.94H854.182V412.258H891.508V373.94Z" fill="#231F20"/>
<path d="M880.033 369.185H863.572V376.602H880.033V369.185Z" fill="#231F20"/>
<path d="M876.506 366.243H866.972V370.572H876.506V366.243Z" fill="#231F20"/>
<path d="M895.04 384.169H887.765V422.483H895.04V384.169Z" fill="#231F20"/>
<path d="M1002.15 367.094H978.519V405.399H1002.15V367.094Z" fill="#231F20"/>
<path d="M1025.84 373.84H1002.2V412.15H1025.84V373.84Z" fill="#231F20"/>
<path d="M1044.96 374.352H1028.78V412.661H1044.96V374.352Z" fill="#231F20"/>
<path d="M908.659 402.098V374.051H911.712V361.763L917.153 355.886H939.121L939.017 404.621L908.659 402.098Z" fill="#231F20"/>
<path d="M945.815 378.704H936.141V414.888H945.815V378.704Z" fill="#231F20"/>
<path d="M953.54 383.258H943.84V419.446H953.54V383.258Z" fill="#231F20"/>
<path d="M960.993 389.036H951.291V425.187H960.993V389.036Z" fill="#231F20"/>
<path d="M975.239 376.653H965.396V412.797H975.239V376.653Z" fill="#231F20"/>
<path d="M735.103 388.594H729.075V425.545H735.103V388.594Z" fill="#231F20"/>
<path d="M1213.5 366.992H1178.04V425.788H1213.5V366.992Z" fill="#231F20"/>
<path d="M1183.82 351.293L1206.15 358.315V380.159L1183.82 373.135V351.293Z" fill="#231F20"/>
<path d="M1190.76 349.029L1199.22 351.702V359.966L1190.76 357.339V349.029Z" fill="#231F20"/>
<path d="M1255.39 341.91H1219.94V418.128H1255.39V341.91Z" fill="#231F20"/>
<path d="M1265.37 360.005H1253.7V408.172H1265.37V360.005Z" fill="#231F20"/>
<path d="M1296.34 364.92H1272.52V411.042H1296.34V364.92Z" fill="#231F20"/>
<path d="M1291.57 350.911H1277.93V379.902H1291.57V350.911Z" fill="#231F20"/>
<path d="M1286.63 347.764H1282.18V354.348H1286.63V347.764Z" fill="#231F20"/>
<path d="M1335.24 364.8H1297.91V403.113H1335.24V364.8Z" fill="#231F20"/>
<path d="M1323.77 360.005H1307.31V367.466H1323.77V360.005Z" fill="#231F20"/>
<path d="M1320.24 357.105H1310.7V361.388H1320.24V357.105Z" fill="#231F20"/>
<path d="M1341.13 392.909V364.864H1344.18V352.586L1349.62 346.744H1371.59L1371.49 395.479L1341.13 392.909Z" fill="#231F20"/>
<path d="M731.009 394.667H722.35V426.935H731.009V394.667Z" fill="#231F20"/>
<path d="M936.733 427.953H930.561V443H936.733V427.953Z" fill="#231F20"/>
<path d="M823.755 393.506H819.905V398.59H823.755V393.506Z" fill="#231F20"/>
<path d="M1293.54 401.585H1275.11V437.301H1293.54V401.585Z" fill="#231F20"/>
<path d="M1312.15 408.778H1288.84V437.301H1312.15V408.778Z" fill="#231F20"/>
<path d="M1061.77 410.433H1045.97V439.33H1061.77V410.433Z" fill="#231F20"/>
<path d="M722.35 424.916V443H927.862V425.379C927.862 425.115 927.651 424.916 927.376 424.916H722.35Z" fill="#231F20"/>
<path d="M933.717 421.44H927.17V443H933.717V421.44Z" fill="#231F20"/>
<path d="M933.643 383.538H897.742V429.741H933.643V383.538Z" fill="#231F20"/>
<path d="M927.829 367.508L905.203 374.675V397.003L927.829 389.843V367.508Z" fill="#231F20"/>
<path d="M920.792 365.2L912.231 367.894V376.368L920.792 373.676V365.2Z" fill="#231F20"/>
<path d="M885.405 375.968H849.502V443H885.405V375.968Z" fill="#231F20"/>
<path d="M851.237 393.224H839.384V439.188H851.237V393.224Z" fill="#231F20"/>
<path d="M832.143 406.71H811.485V442.161H832.143V406.71Z" fill="#231F20"/>
<path d="M827.461 395.955H815.612V418.202H827.461V395.955Z" fill="#231F20"/>
<path d="M806.428 409.043H768.616V436.496H806.428V409.043Z" fill="#231F20"/>
<path d="M796.895 405.607H780.222V410.94H796.895V405.607Z" fill="#231F20"/>
<path d="M793.466 403.514H783.801V406.583H793.466V403.514Z" fill="#231F20"/>
<path d="M772.396 416.338H765.017V442.998H772.396V416.338Z" fill="#231F20"/>
<path d="M762.655 429.202V409.085H759.567V400.276L754.029 396.09H731.777L731.881 431.013L762.655 429.202Z" fill="#231F20"/>
<path d="M1377 434.771H925.747V443H1377V434.771Z" fill="#231F20"/>
<path d="M1051.93 397.572H1028.33V439.966H1051.93V397.572Z" fill="#231F20"/>
<path d="M1030.58 419.879H1010.04V439.933H1030.58V419.879Z" fill="#231F20"/>
<path d="M1044.79 385.319H1033.07V405.373H1044.79V385.319Z" fill="#231F20"/>
<path d="M1014.02 418.029H1006.11V438.071H1014.02V418.029Z" fill="#231F20"/>
<path d="M1095.25 370.408H1059.8V439.831H1095.25V370.408Z" fill="#231F20"/>
<path d="M1065.58 351.878L1087.9 360.126V385.918L1065.58 377.661V351.878Z" fill="#231F20"/>
<path d="M1254.42 369.159H1222.12V436.457H1254.42V369.159Z" fill="#231F20"/>
<path d="M1248.44 351.198L1228.1 359.196V384.183L1248.44 376.193V351.198Z" fill="#231F20"/>
<path d="M1072.52 349.167L1080.97 352.313V362.121L1072.52 358.971V349.167Z" fill="#231F20"/>
<path d="M1151.01 355.072H1121.34V439.392H1151.01V355.072Z" fill="#231F20"/>
<path d="M1144.15 352.366H1128.21V357.218H1144.15V352.366Z" fill="#231F20"/>
<path d="M1145.22 347.764H1127.13V353.264H1145.22V347.764Z" fill="#231F20"/>
<path d="M1137.15 327.841H1135.2V348.892H1137.15V327.841Z" fill="#231F20"/>
<path d="M1142.45 343.961H1129.9V349.466H1142.45V343.961Z" fill="#231F20"/>
<path d="M1160.54 422.883H1147.82V436.591H1160.54V422.883Z" fill="#231F20"/>
<path d="M1187.5 407.228H1134.27V438.994H1187.5V407.228Z" fill="#231F20"/>
<path d="M1178.73 381.399H1160.54V428.54H1178.73V381.399Z" fill="#231F20"/>
<path d="M1111.35 389.734H1093.15V436.871H1111.35V389.734Z" fill="#231F20"/>
<path d="M1124.44 408.174H1106.25V434.607H1124.44V408.174Z" fill="#231F20"/>
<path d="M1212.14 382.051H1185.5V426.639H1212.14V382.051Z" fill="#231F20"/>
<path d="M1275.97 387.079H1259.97V437.903H1275.97V387.079Z" fill="#231F20"/>
<path d="M1237.66 418.771H1209.65V437.505H1237.66V418.771Z" fill="#231F20"/>
<path d="M1336.99 379.28H1310.43V439.195H1336.99V379.28Z" fill="#231F20"/>
<path d="M1206.35 376.516H1191.28V401.726H1206.35V376.516Z" fill="#231F20"/>
<path d="M1369.51 357.475H1334.62V440.678H1369.51V357.475Z" fill="#231F20"/>
<path d="M1364.97 351.603H1339.18V365.773H1364.97V351.603Z" fill="#231F20"/>
<path d="M1361.58 344.847H1342.55V355.313H1361.58V344.847Z" fill="#231F20"/>
<path d="M1353.05 332.458H1351.11V350.046H1353.05V332.458Z" fill="#231F20"/>
<path d="M950.872 403.315H927.17V440.678H950.872V403.315Z" fill="#231F20"/>
<path d="M1033.07 418.121H941.684V440.678H1033.07V418.121Z" fill="#231F20"/>
<path d="M988.695 410.433H945.815V436.559H988.695V410.433Z" fill="#231F20"/>
<path d="M1377 423.415H722.35V443H1377V423.415Z" fill="#231F20"/>
<path d="M1251.17 364.171L1251.25 374.944L1225.37 375.129L1225.3 364.349L1251.17 364.171Z" fill="#231F20"/>
<path d="M1015.9 380.261H975.206V437.301H1015.9V380.261Z" fill="#231F20"/>
<path d="M117.089 264.006H48.4874V425.117H117.089V264.006Z" fill="#231F20"/>
<path d="M105.86 241.875H59.7186V320.808H105.86V241.875Z" fill="#231F20"/>
<path d="M97.2108 224.246H68.3566V267.598H97.2108V224.246Z" fill="#231F20"/>
<path d="M94.6291 211.688H70.9498V255.032H94.6291V211.688Z" fill="#231F20"/>
<path d="M90.2014 202.379H75.3776V245.67H90.2014V202.379Z" fill="#231F20"/>
<path d="M87.1131 193.012H78.4034V236.368H87.1131V193.012Z" fill="#231F20"/>
<path d="M84.3047 177.653H81.2742V220.937H84.3047V177.653Z" fill="#231F20"/>
<path d="M556.067 251.951C523.792 251.951 497.577 277.617 497.577 309.341C497.577 341.066 523.792 366.736 556.067 366.736C588.343 366.736 614.562 341.01 614.562 309.341C614.562 277.672 588.399 251.951 556.067 251.951ZM556.067 255.032C586.661 255.032 611.412 279.323 611.412 309.341C611.412 339.359 586.661 363.643 556.067 363.643C525.474 363.643 500.712 339.303 500.712 309.341C500.712 279.379 525.527 255.032 556.067 255.032Z" fill="#231F20"/>
<path d="M558.589 309.341C558.589 310.717 557.467 311.818 556.067 311.818C554.668 311.818 553.537 310.715 553.537 309.341C553.537 307.967 554.659 306.864 556.067 306.864C557.476 306.864 558.589 307.961 558.589 309.341Z" fill="#231F20"/>
<path d="M602.491 262.96C602.491 265.717 600.243 267.921 597.437 267.921C594.631 267.921 592.38 265.717 592.38 262.96C592.38 260.204 594.635 258.011 597.437 258.011C600.238 258.011 602.491 260.21 602.491 262.96Z" fill="#231F20"/>
<path d="M590.531 254.762C590.531 257.511 588.287 259.72 585.481 259.72C582.675 259.72 580.427 257.511 580.427 254.762C580.427 252.012 582.666 249.81 585.481 249.81C588.297 249.81 590.531 252.012 590.531 254.762Z" fill="#231F20"/>
<path d="M610.845 273.1C610.845 275.854 608.555 278.054 605.799 278.054C603.044 278.054 600.689 275.852 600.689 273.1C600.689 270.347 602.996 268.146 605.799 268.146C608.603 268.146 610.845 270.347 610.845 273.1Z" fill="#231F20"/>
<path d="M618.375 284.222C618.375 286.986 616.131 289.183 613.322 289.183C610.514 289.183 608.27 286.986 608.27 284.222C608.27 281.458 610.509 279.268 613.322 279.268C616.135 279.268 618.375 281.472 618.375 284.222Z" fill="#231F20"/>
<path d="M622.583 297.28C622.583 300.034 620.281 302.294 617.53 302.294C614.78 302.294 612.423 300.034 612.423 297.28C612.423 294.525 614.722 292.319 617.53 292.319C620.339 292.319 622.583 294.576 622.583 297.28Z" fill="#231F20"/>
<path d="M498.87 278.167C499.594 280.808 502.403 282.355 505.091 281.588C507.79 280.808 509.359 278.054 508.577 275.468C507.839 272.822 505.028 271.279 502.343 272.057C499.645 272.774 498.07 275.523 498.87 278.165V278.167Z" fill="#231F20"/>
<path d="M508.013 267.103C508.794 269.744 511.607 271.233 514.293 270.514C516.998 269.744 518.506 266.987 517.782 264.343C516.998 261.7 514.187 260.155 511.499 260.93C508.794 261.7 507.286 264.457 508.013 267.103Z" fill="#231F20"/>
<path d="M493.647 290.175C494.431 292.819 497.239 294.366 499.932 293.591C502.62 292.816 504.142 290.066 503.402 287.476C502.62 284.832 499.821 283.29 497.117 284.062C494.431 284.777 492.909 287.534 493.644 290.175H493.647Z" fill="#231F20"/>
<path d="M489.483 302.898C490.279 305.544 493.08 307.086 495.777 306.311C498.47 305.544 499.988 302.844 499.254 300.199C498.47 297.555 495.657 296.012 492.969 296.787C490.276 297.507 488.756 300.254 489.48 302.898H489.483Z" fill="#231F20"/>
<path d="M489.157 316.61C489.941 319.254 492.694 320.806 495.379 320.024C498.072 319.256 499.648 316.511 498.87 313.86C498.132 311.217 495.319 309.734 492.629 310.444C489.941 311.215 488.365 313.967 489.157 316.61Z" fill="#231F20"/>
<path d="M501.16 345.696C503.913 346.304 506.613 344.655 507.226 341.954C507.844 339.255 506.162 336.609 503.402 336.001C500.712 335.402 498.024 337.048 497.348 339.75C496.733 342.389 498.47 345.09 501.16 345.696Z" fill="#231F20"/>
<path d="M495.719 332.418C498.41 333.091 501.112 331.375 501.785 328.725C502.4 326.035 500.654 323.384 497.961 322.783C495.211 322.177 492.518 323.831 491.898 326.474C491.28 329.18 492.969 331.819 495.719 332.418Z" fill="#231F20"/>
<path d="M509.41 355.939C512.114 356.545 514.86 354.894 515.48 352.195C516.095 349.501 514.416 346.85 511.665 346.249C508.915 345.638 506.215 347.296 505.595 349.995C504.982 352.634 506.659 355.336 509.41 355.939Z" fill="#231F20"/>
<path d="M520.981 364.256C523.669 364.862 526.417 363.215 527.047 360.509C527.66 357.873 525.922 355.222 523.223 354.563C520.472 353.955 517.782 355.659 517.166 358.308C516.539 361.014 518.226 363.643 520.981 364.256Z" fill="#231F20"/>
<path d="M532.21 370.202C534.958 370.811 537.651 369.152 538.266 366.453C538.884 363.819 537.204 361.122 534.514 360.509C531.764 359.908 529.059 361.564 528.449 364.256C527.775 366.909 529.508 369.601 532.21 370.202Z" fill="#231F20"/>
<path d="M619.663 325.811C617.361 327.358 614.167 326.745 612.596 324.488C611.018 322.228 611.645 319.147 613.938 317.607C616.239 316.065 619.39 316.61 620.956 318.872C622.525 321.132 621.967 324.275 619.661 325.811H619.663Z" fill="#231F20"/>
<path d="M621.403 312.484C619.101 314.032 615.96 313.414 614.393 311.159C612.816 308.902 613.383 305.819 615.735 304.278C618.037 302.731 621.185 303.282 622.752 305.599C624.32 307.856 623.707 310.932 621.401 312.484H621.403Z" fill="#231F20"/>
<path d="M615.229 340.023C612.934 341.565 609.725 341.01 608.159 338.758C606.588 336.445 607.206 333.357 609.512 331.819C611.814 330.274 614.951 330.876 616.519 333.137C618.095 335.399 617.533 338.48 615.231 340.02L615.229 340.023Z" fill="#231F20"/>
<path d="M606.928 351.649C604.624 353.185 601.473 352.634 599.907 350.324C598.337 348.064 598.894 344.974 601.198 343.432C603.551 341.891 606.702 342.507 608.27 344.759C609.845 347.017 609.221 350.102 606.931 351.649H606.928Z" fill="#231F20"/>
<path d="M597.101 360.623C594.744 362.163 591.596 361.608 590.027 359.351C588.456 357.098 589.079 353.953 591.383 352.419C593.673 350.872 596.821 351.476 598.39 353.74C599.968 355.997 599.403 359.089 597.104 360.623H597.101Z" fill="#231F20"/>
<path d="M568.476 372.522C565.95 371.252 564.985 368.28 566.225 365.852C567.518 363.37 570.544 362.392 573.07 363.643C575.541 364.918 576.554 367.903 575.263 370.318C574.033 372.793 570.944 373.725 568.476 372.522Z" fill="#231F20"/>
<path d="M581.1 368.119C578.629 366.909 577.616 363.877 578.916 361.451C580.147 358.969 583.235 358.03 585.71 359.249C588.174 360.509 589.183 363.486 587.954 365.965C586.666 368.391 583.626 369.384 581.102 368.119H581.1Z" fill="#231F20"/>
<path d="M543.934 374.611C541.412 373.343 540.462 370.371 541.688 367.903C542.981 365.466 546.016 364.474 548.538 365.741C551.013 366.948 552.017 369.983 550.721 372.416C549.493 374.828 546.405 375.827 543.932 374.611H543.934Z" fill="#231F20"/>
<path d="M555.672 374.777C553.148 373.558 552.186 370.538 553.428 368.119C554.712 365.69 557.747 364.698 560.282 365.908C562.739 367.177 563.752 370.152 562.461 372.624C561.231 375.055 558.143 376.04 555.672 374.777Z" fill="#231F20"/>
<path d="M517.951 258.501C518.737 261.147 521.546 262.639 524.236 261.92C526.929 261.147 528.506 258.395 527.72 255.747C526.929 253.112 524.127 251.621 521.425 252.342C518.793 253.112 517.217 255.862 517.951 258.501Z" fill="#231F20"/>
<path d="M529.675 253.434C530.459 256.082 533.272 257.565 535.971 256.85C538.664 256.082 540.23 253.328 539.448 250.677C538.664 248.043 535.858 246.498 533.165 247.266C530.526 248.043 528.953 250.793 529.677 253.434H529.675Z" fill="#231F20"/>
<path d="M544.057 250.677C544.781 253.33 547.591 254.87 550.282 254.095C552.981 253.328 554.55 250.575 553.766 247.985C552.981 245.337 550.173 243.799 547.531 244.569C544.838 245.291 543.27 248.043 544.057 250.677Z" fill="#231F20"/>
<path d="M557.527 249.914C558.311 252.564 561.11 254.04 563.812 253.33C566.501 252.562 568.071 249.808 567.289 247.162C566.501 244.511 563.694 243.026 561.006 243.748C558.362 244.511 556.794 247.266 557.527 249.912V249.914Z" fill="#231F20"/>
<path d="M569.705 251.845C570.436 254.482 573.244 256.029 575.937 255.259C578.627 254.533 580.205 251.787 579.411 249.141C578.627 246.498 575.826 244.953 573.186 245.73C570.486 246.44 568.916 249.197 569.705 251.843V251.845Z" fill="#231F20"/>
<path d="M554.321 307.96L556.687 308.238L544.947 414.543L542.597 414.268L554.321 307.96Z" fill="#231F20"/>
<path d="M557.976 307.96L555.563 308.238L566.783 414.599L569.147 414.321L557.976 307.96Z" fill="#231F20"/>
<path d="M174.569 299.535H133.824V393.014H174.569V299.535Z" fill="#231F20"/>
<path d="M169.854 292.985H138.529V317.88H169.854V292.985Z" fill="#231F20"/>
<path d="M167.779 287.973H140.553V294.135H167.779V287.973Z" fill="#231F20"/>
<path d="M164.411 286.211H143.975V290.288H164.411V286.211Z" fill="#231F20"/>
<path d="M162.278 280.975H146.11V286.704H162.278V280.975Z" fill="#231F20"/>
<path d="M382.496 359.795H364.537V397.2H382.496V359.795Z" fill="#231F20"/>
<path d="M-3.04445 378.519V401.881H230.419V379.134C230.419 378.804 230.144 378.519 229.862 378.519H-3.04445Z" fill="#231F20"/>
<path d="M230.419 360.075H189.61V401.881H230.419V360.075Z" fill="#231F20"/>
<path d="M223.796 345.53L198.151 352.031V372.245L223.796 365.743V345.53Z" fill="#231F20"/>
<path d="M215.774 343.432L206.062 345.865V353.569L215.774 351.096V343.432Z" fill="#231F20"/>
<path d="M114.725 364.42L192.194 363.643L192.594 403.696L115.183 404.464L114.725 364.42Z" fill="#231F20"/>
<path d="M121.681 367.348H98.224V400.838H121.681V367.348Z" fill="#231F20"/>
<path d="M116.356 357.154H102.883V378.191H116.356V357.154Z" fill="#231F20"/>
<path d="M112.206 354.892H107.769V359.635H112.206V354.892Z" fill="#231F20"/>
<path d="M-1.7536 340.68H3.02343V308.96L11.6614 293.977H46.4748L46.3522 419.164L-1.7536 412.561V340.68Z" fill="#231F20"/>
<path d="M92.5078 357.979H49.5631V393.448H92.5078V357.979Z" fill="#231F20"/>
<path d="M53.8219 367.455H45.4615V401.881H53.8219V367.455Z" fill="#231F20"/>
<path d="M7.78889 386.401L42.7688 384.088V358.088H39.2803V346.688L32.9418 341.29H7.67785L7.78889 386.401Z" fill="#231F20"/>
<path d="M732.443 391.244H228.009V401.881H732.443V391.244Z" fill="#231F20"/>
<path d="M371.327 343.161H344.548V397.961H371.327V343.161Z" fill="#231F20"/>
<path d="M345.612 371.914H332.317V397.859H345.612V371.914Z" fill="#231F20"/>
<path d="M363.244 327.409H349.94V353.294H363.244V327.409Z" fill="#231F20"/>
<path d="M420.555 321.849H380.305V397.803H420.555V321.849Z" fill="#231F20"/>
<path d="M386.817 301.575L412.187 310.611V338.813L386.817 329.777V301.575Z" fill="#231F20"/>
<path d="M394.682 298.661L404.329 302.072V312.753L394.682 309.341V298.661Z" fill="#231F20"/>
<path d="M494.706 375.931H480.229V393.612H494.706V375.931Z" fill="#231F20"/>
<path d="M498.278 355.66H482.159V396.698H498.278V355.66Z" fill="#231F20"/>
<path d="M556.07 339.694H523.058V397.306H556.07V339.694Z" fill="#231F20"/>
<path d="M625.78 329.664H607.592V395.322H625.78V329.664Z" fill="#231F20"/>
<path d="M652.39 347.9H644.249V394.767H652.39V347.9Z" fill="#231F20"/>
<path d="M687.148 319.536H663.503V396.978H687.148V319.536Z" fill="#231F20"/>
<path d="M546.745 332.529H529.628V365.089H546.745V332.529Z" fill="#231F20"/>
<path d="M727.842 291.385H688.207V398.902H727.842V291.385Z" fill="#231F20"/>
<path d="M722.676 283.78H693.368V302.128H722.676V283.78Z" fill="#231F20"/>
<path d="M718.859 275.135H697.195V288.628H718.859V275.135Z" fill="#231F20"/>
<path d="M709.145 259.112H706.955V281.856H709.145V259.112Z" fill="#231F20"/>
<path d="M256.523 350.657H237.836V398.902H256.523V350.657Z" fill="#231F20"/>
<path d="M101.648 358.255H88.4016V413.334H101.648V358.255Z" fill="#231F20"/>
<path d="M689.049 364.975H680.742V408.71H689.049V364.975Z" fill="#231F20"/>
<path d="M237.052 374.007H229.638V401.881H237.052V374.007Z" fill="#231F20"/>
<path d="M240.471 382.486H233.461V401.881H240.471V382.486Z" fill="#231F20"/>
<path d="M81.6583 353.569H62.6959V360.461H81.6583V353.569Z" fill="#231F20"/>
<path d="M77.7418 350.872H66.7905V354.892H77.7418V350.872Z" fill="#231F20"/>
<path d="M328.26 369.601H319.286V395.551H328.26V369.601Z" fill="#231F20"/>
<path d="M505.489 376.098H497.961V393.837H505.489V376.098Z" fill="#231F20"/>
<path d="M613.549 372.962H584.97V395.322H613.549V372.962Z" fill="#231F20"/>
<path d="M645.772 375.441H624.827V394.501H645.772V375.441Z" fill="#231F20"/>
<path d="M732.441 421.038H-11.1272V442.688H732.441V421.038Z" fill="#231F20"/>
<path d="M506.997 378.577C506.722 378.577 506.442 378.908 506.442 379.347V422.259C506.442 422.696 506.722 423.029 506.997 423.029H732.838V378.577H506.997Z" fill="#231F20"/>
<path d="M354.261 395.657H354.148V434.646C354.148 435.03 354.368 435.308 354.652 435.308H507.226V395.655H354.261V395.657Z" fill="#231F20"/>
<path d="M507.226 373.073H499.932V412.173H507.226V373.073Z" fill="#231F20"/>
<path d="M503.467 383.473H496.566V422.583H503.467V383.473Z" fill="#231F20"/>
<path d="M420.386 366.021H397.937V405.121H420.386V366.021Z" fill="#231F20"/>
<path d="M394.789 372.962H372.333V412.066H394.789V372.962Z" fill="#231F20"/>
<path d="M369.529 373.454H354.148V412.561H369.529V373.454Z" fill="#231F20"/>
<path d="M417.189 362.279H401.583V369.874H417.189V362.279Z" fill="#231F20"/>
<path d="M413.982 359.295H404.947V363.643H413.982V359.295Z" fill="#231F20"/>
<path d="M454.79 404.351L483.66 401.712V373.13H480.738V360.565L475.563 354.619H454.683L454.79 404.351Z" fill="#231F20"/>
<path d="M451.764 381.327H442.557V418.235H451.764V381.327Z" fill="#231F20"/>
<path d="M444.414 385.962H435.263V422.923H444.414V385.962Z" fill="#231F20"/>
<path d="M437.398 391.85H428.191V428.811H437.398V391.85Z" fill="#231F20"/>
<path d="M431.11 375.769H424.594V412.675H431.11V375.769Z" fill="#231F20"/>
<path d="M3.02343 389.096C2.68337 389.096 2.45897 389.424 2.45897 389.81V432.722C2.45897 433.161 2.68568 433.492 3.02343 433.492H354.763C355.041 433.492 355.319 433.161 355.319 432.722V389.096H3.02343Z" fill="#231F20"/>
<path d="M42.7087 352.005H2.45666V433.494H42.7087V352.005Z" fill="#231F20"/>
<path d="M9.02884 330.316L34.339 339.997V370.23L9.02884 360.547V330.316Z" fill="#231F20"/>
<path d="M16.8849 327.117L26.4853 330.79V342.331L16.8849 338.6V327.117Z" fill="#231F20"/>
<path d="M90.3101 337.592H50.0604V424.678H90.3101V337.592Z" fill="#231F20"/>
<path d="M132.917 375.272H109.733V416.581H132.917V375.272Z" fill="#231F20"/>
<path d="M128.309 362.658H115.012V388.659H128.309V362.658Z" fill="#231F20"/>
<path d="M123.481 359.853H119.162V365.743H123.481V359.853Z" fill="#231F20"/>
<path d="M181.023 363.706H138.585V407.552H181.023V363.706Z" fill="#231F20"/>
<path d="M167.946 358.255H149.249V366.791H167.946V358.255Z" fill="#231F20"/>
<path d="M163.955 354.892H153.122V359.853H163.955V354.892Z" fill="#231F20"/>
<path d="M185.013 375.388H176.752V419.231H185.013V375.388Z" fill="#231F20"/>
<path d="M302.954 355.884H276.115V399.677H302.954V355.884Z" fill="#231F20"/>
<path d="M333.601 363.604H306.706V407.438H333.601V363.604Z" fill="#231F20"/>
<path d="M368.07 325.764H296.102V416.313H368.07V325.764Z" fill="#231F20"/>
<path d="M355.319 364.203H336.914V407.991H355.319V364.203Z" fill="#231F20"/>
<path d="M234.965 398.789L200.506 395.932V363.819H203.927V349.771L210.157 343.052H235.088L234.965 398.789Z" fill="#231F20"/>
<path d="M242.662 369.152H231.71V410.526H242.662V369.152Z" fill="#231F20"/>
<path d="M251.471 374.386H240.422V415.758H251.471V374.386Z" fill="#231F20"/>
<path d="M259.949 380.945H248.889V422.307H259.949V380.945Z" fill="#231F20"/>
<path d="M270.415 366.791H256.574V408.155H270.415V366.791Z" fill="#231F20"/>
<path d="M3.35886 380.45H-3.49323V422.751H3.35886V380.45Z" fill="#231F20"/>
<path d="M546.747 355.775H506.442V423.031H546.747V355.775Z" fill="#231F20"/>
<path d="M513.007 337.826L538.387 345.865V370.811L513.007 362.774V337.826Z" fill="#231F20"/>
<path d="M520.921 335.233L530.524 338.258V347.736L520.921 344.704V335.233Z" fill="#231F20"/>
<path d="M594.298 327.078H554.043V414.268H594.298V327.078Z" fill="#231F20"/>
<path d="M605.635 347.791H592.38V402.866H605.635V347.791Z" fill="#231F20"/>
<path d="M636.953 364.756H613.769V406.118H636.953V364.756Z" fill="#231F20"/>
<path d="M632.294 352.195H619.053V378.193H632.294V352.195Z" fill="#231F20"/>
<path d="M627.519 349.327H623.147V355.278H627.519V349.327Z" fill="#231F20"/>
<path d="M685.008 353.243H642.623V397.086H685.008V353.243Z" fill="#231F20"/>
<path d="M671.984 347.791H653.283V356.326H671.984V347.791Z" fill="#231F20"/>
<path d="M667.943 344.422H657.165V349.329H667.943V344.422Z" fill="#231F20"/>
<path d="M726.206 388.325L691.691 385.414V353.356H695.168V339.303L701.34 332.582H726.329L726.206 388.325Z" fill="#231F20"/>
<path d="M232.388 425.45H225.369V442.69H232.388V425.45Z" fill="#231F20"/>
<path d="M645.711 337.826C645.711 390.088 635.216 432.447 622.307 432.447C609.399 432.447 598.957 390.088 598.957 337.826C598.957 285.563 610.236 250.742 622.307 243.193C634.6 250.742 645.711 285.552 645.711 337.826Z" fill="#231F20"/>
<path d="M637.629 419.278H616.688V436.193H637.629V419.278Z" fill="#231F20"/>
<path d="M374.418 405.459H356.454V438.502H374.418V405.459Z" fill="#231F20"/>
<path d="M-11.1272 421.981V442.688H222.288V422.529C222.288 422.259 222.061 421.981 221.721 421.981H-11.1272Z" fill="#231F20"/>
<path d="M228.964 418.02H221.497V442.688H228.964V418.02Z" fill="#231F20"/>
<path d="M199.962 326.019H153.545V434.334H199.962V326.019Z" fill="#231F20"/>
<path d="M234.181 381.667H187.769V435.754H234.181V381.667Z" fill="#231F20"/>
<path d="M4.25412 428.425L39.2248 425.615V394.757H35.69V381.218L29.4047 374.777H4.14539L4.25412 428.425Z" fill="#231F20"/>
<path d="M732.441 433.277H219.866V442.69H732.441V433.277Z" fill="#231F20"/>
<path d="M322.314 370.919H276.068V436.193H322.314V370.919Z" fill="#231F20"/>
<path d="M107.429 390.247H61.1829V434.269H107.429V390.247Z" fill="#231F20"/>
<path d="M135.328 357.154H89.0817V435.31H135.328V357.154Z" fill="#231F20"/>
<path d="M163.675 400.627H117.429V440.835H163.675V400.627Z" fill="#231F20"/>
<path d="M363.244 390.754H336.405V439.221H363.244V390.754Z" fill="#231F20"/>
<path d="M338.987 416.255H315.631V439.165H338.987V416.255Z" fill="#231F20"/>
<path d="M355.101 376.704H341.797V399.677H355.101V376.704Z" fill="#231F20"/>
<path d="M320.128 414.104H311.206V437.075H320.128V414.104Z" fill="#231F20"/>
<path d="M412.416 371.801H372.169V439.052H412.416V371.801Z" fill="#231F20"/>
<path d="M378.732 353.849L404.054 361.839V386.838L378.732 378.852V353.849Z" fill="#231F20"/>
<path d="M593.224 358.255H556.514V435.201H593.224V358.255Z" fill="#231F20"/>
<path d="M386.597 351.258L396.191 354.283V363.819L386.597 360.732V351.258Z" fill="#231F20"/>
<path d="M475.732 357.979H442.052V438.562H475.732V357.979Z" fill="#231F20"/>
<path d="M467.929 355.394H449.86V360.075H467.929V355.394Z" fill="#231F20"/>
<path d="M469.165 351.041H448.627V356.272H469.165V351.041Z" fill="#231F20"/>
<path d="M460.015 331.981H457.834V352.077H460.015V331.981Z" fill="#231F20"/>
<path d="M466.023 347.407H451.764V352.637H466.023V347.407Z" fill="#231F20"/>
<path d="M486.566 419.668H472.14V435.368H486.566V419.668Z" fill="#231F20"/>
<path d="M545.179 372.962H514.922V423.968H545.179V372.962Z" fill="#231F20"/>
<path d="M617.699 378.746H599.507V436.853H617.699V378.746Z" fill="#231F20"/>
<path d="M680.462 369.825H656.829V438.344H680.462V369.825Z" fill="#231F20"/>
<path d="M538.609 366.625H521.485V395.493H538.609V366.625Z" fill="#231F20"/>
<path d="M723.967 344.873H684.275V440.047H723.967V344.873Z" fill="#231F20"/>
<path d="M718.794 338.147H689.498V354.399H718.794V338.147Z" fill="#231F20"/>
<path d="M714.931 330.438H693.315V342.389H714.931V330.438Z" fill="#231F20"/>
<path d="M705.213 316.277H703.031V336.394H705.213V316.277Z" fill="#231F20"/>
<path d="M291.387 401.881H232.388V435.31H291.387V401.881Z" fill="#231F20"/>
<path d="M732.838 420.27H-11.1272V442.688H732.838V420.27Z" fill="#231F20"/>
<path d="M560.285 365.087L560.162 352.743L589.578 352.521L589.629 364.862L560.285 365.087Z" fill="#231F20"/>
<path d="M155.259 260.978H153.122V292.985H155.259V260.978Z" fill="#231F20"/>
<path d="M586.435 337.712L563.308 346.85V375.441L586.435 366.291V337.712Z" fill="#231F20"/>
<path d="M360.325 317.991C360.325 335.73 347.694 350.102 332.083 350.102C316.473 350.102 303.849 335.73 303.849 317.991C303.849 300.252 316.475 285.829 332.083 285.829C347.692 285.829 360.325 300.201 360.325 317.991Z" fill="#231F20"/>
<path d="M337.696 276.344H326.416V296.507H337.696V276.344Z" fill="#231F20"/>
<path d="M334.392 272.991H329.722V283.392H334.392V272.991Z" fill="#231F20"/>
<path d="M333.148 257.236H330.962V277.339H333.148V257.236Z" fill="#231F20"/>
<path d="M305.642 317.824H358.523C361.158 317.824 363.353 319.92 363.353 322.506V324.217C363.353 326.796 361.158 328.898 358.523 328.898H305.642C302.954 328.898 300.821 326.796 300.821 324.217V322.506C300.821 319.92 302.956 317.824 305.642 317.824Z" fill="#231F20"/>
<path d="M426.842 381.109H403.209V439.607H426.842V381.109Z" fill="#231F20"/>
<path d="M445.418 393.506H421.848V442.746H445.418V393.506Z" fill="#231F20"/>
<path d="M487.188 388.987H463.548V438.231H487.188V388.987Z" fill="#231F20"/>
<path d="M526.091 405.459H475.899V428.642H526.091V405.459Z" fill="#231F20"/>
<path d="M614.104 414.714H535.516V428.642H614.104V414.714Z" fill="#231F20"/>
<path d="M668.558 407.436H532.596V439.272H668.558V407.436Z" fill="#231F20"/>
<path d="M46.3244 352.422C59.5705 348.892 64.7409 357.091 69.0298 366.548V427.84H46.3244V352.422Z" fill="#231F20"/>
</g>
<defs>
<clipPath id="clip0_13_1171">
<rect width="1388" height="443" fill="white" transform="translate(-11)"/>
</clipPath>
</defs>
</svg>
