<svg width="25" height="20" viewBox="0 0 25 20" fill="none" xmlns="http://www.w3.org/2000/svg">
<path d="M19.6875 13.749H5.32812C5.15625 13.749 5.01562 13.8897 5.01562 14.0615L5.01172 15.9365C5.01172 16.1084 5.15234 16.249 5.32422 16.249H19.6875C19.8594 16.249 20 16.1084 20 15.9365V14.0615C20 13.8897 19.8594 13.749 19.6875 13.749ZM19.6875 17.499H5.31641C5.14453 17.499 5.00391 17.6397 5.00391 17.8115L5 19.6865C5 19.8584 5.14062 19.999 5.3125 19.999H19.6875C19.8594 19.999 20 19.8584 20 19.6865V17.8115C20 17.6397 19.8594 17.499 19.6875 17.499ZM19.6875 9.99903H5.33594C5.16406 9.99903 5.02344 10.1397 5.02344 10.3115L5.01953 12.1865C5.01953 12.3584 5.16016 12.499 5.33203 12.499H19.6875C19.8594 12.499 20 12.3584 20 12.1865V10.3115C20 10.1397 19.8594 9.99903 19.6875 9.99903ZM23.8477 4.56934L13.2188 0.143557C12.9903 0.0487833 12.7454 0 12.498 0C12.2507 0 12.0058 0.0487833 11.7773 0.143557L1.15234 4.56934C0.457031 4.86231 0 5.542 0 6.29981V19.6865C0 19.8584 0.140625 19.999 0.3125 19.999H3.4375C3.60938 19.999 3.75 19.8584 3.75 19.6865V9.99903C3.75 9.31153 4.32031 8.74903 5.02344 8.74903H19.9766C20.6797 8.74903 21.25 9.31153 21.25 9.99903V19.6865C21.25 19.8584 21.3906 19.999 21.5625 19.999H24.6875C24.8594 19.999 25 19.8584 25 19.6865V6.29981C25 5.542 24.543 4.86231 23.8477 4.56934Z" fill="#545454"/>
</svg>
