<svg width="12" height="12" viewBox="0 0 12 12" fill="none" xmlns="http://www.w3.org/2000/svg">
<path d="M11.1863 8.27299L8.78001 7.24172C8.67721 7.19791 8.56297 7.18868 8.45447 7.21542C8.34598 7.24215 8.2491 7.30341 8.17843 7.38997L7.11279 8.69194C5.44036 7.90341 4.09444 6.55749 3.30591 4.88506L4.60788 3.81941C4.69461 3.74888 4.756 3.652 4.78275 3.54345C4.8095 3.43491 4.80015 3.3206 4.75613 3.21784L3.72486 0.811549C3.67654 0.700775 3.59109 0.610333 3.48323 0.555816C3.37538 0.501299 3.25188 0.486125 3.13403 0.512911L0.899616 1.02855C0.785998 1.05478 0.684628 1.11875 0.612051 1.21002C0.539473 1.30129 0.499974 1.41447 0.5 1.53107C0.5 7.04191 4.96668 11.5 10.4689 11.5C10.5856 11.5001 10.6988 11.4606 10.7901 11.388C10.8814 11.3154 10.9454 11.214 10.9717 11.1004L11.4873 8.86597C11.5139 8.74755 11.4984 8.62356 11.4435 8.51533C11.3885 8.4071 11.2976 8.3214 11.1863 8.27299Z" fill="white"/>
</svg>
