<svg width="19" height="18" viewBox="0 0 19 18" fill="none" xmlns="http://www.w3.org/2000/svg">
<path d="M19 4.75V15.6786C19 16.6842 18.2021 17.5 17.2188 17.5H1.78125C0.797852 17.5 0 16.6842 0 15.6786V4.75C0 3.74442 0.797852 2.92857 1.78125 2.92857H5.04688L5.50332 1.68013C5.76309 0.970536 6.42734 0.5 7.16953 0.5H11.8268C12.5689 0.5 13.2332 0.970536 13.493 1.68013L13.9531 2.92857H17.2188C18.2021 2.92857 19 3.74442 19 4.75ZM13.9531 10.2143C13.9531 7.70223 11.9566 5.66071 9.5 5.66071C7.04336 5.66071 5.04688 7.70223 5.04688 10.2143C5.04688 12.7263 7.04336 14.7679 9.5 14.7679C11.9566 14.7679 13.9531 12.7263 13.9531 10.2143ZM12.7656 10.2143C12.7656 12.0547 11.2998 13.5536 9.5 13.5536C7.7002 13.5536 6.23438 12.0547 6.23438 10.2143C6.23438 8.37388 7.7002 6.875 9.5 6.875C11.2998 6.875 12.7656 8.37388 12.7656 10.2143Z" fill="white"/>
</svg>
