<svg width="55" height="48" viewBox="0 0 55 48" fill="none" xmlns="http://www.w3.org/2000/svg">
<path d="M49.8438 0H5.15625C2.30957 0 0 2.30357 0 5.14286V42.8571C0 45.6964 2.30957 48 5.15625 48H49.8438C52.6904 48 55 45.6964 55 42.8571V5.14286C55 2.30357 52.6904 0 49.8438 0ZM40.8633 31.125C41.3789 31.6393 41.3789 32.475 40.8633 32.9893L36.5127 37.3286C35.9971 37.8429 35.1592 37.8429 34.6436 37.3286L27.5 30.1393L20.3564 37.3286C19.8408 37.8429 19.0029 37.8429 18.4873 37.3286L14.1367 32.9893C13.6211 32.475 13.6211 31.6393 14.1367 31.125L21.3447 24L14.1367 16.875C13.6211 16.3607 13.6211 15.525 14.1367 15.0107L18.4873 10.6714C19.0029 10.1571 19.8408 10.1571 20.3564 10.6714L27.5 17.8607L34.6436 10.6714C35.1592 10.1571 35.9971 10.1571 36.5127 10.6714L40.8633 15.0107C41.3789 15.525 41.3789 16.3607 40.8633 16.875L33.6553 24L40.8633 31.125Z" fill="black"/>
</svg>
