<svg width="19" height="25" viewBox="0 0 19 25" fill="none" xmlns="http://www.w3.org/2000/svg">
<path d="M16.5312 3.125H12.625C12.625 1.40137 11.2236 0 9.5 0C7.77637 0 6.375 1.40137 6.375 3.125H2.46875C1.1748 3.125 0.125 4.1748 0.125 5.46875V22.6562C0.125 23.9502 1.1748 25 2.46875 25H16.5312C17.8252 25 18.875 23.9502 18.875 22.6562V5.46875C18.875 4.1748 17.8252 3.125 16.5312 3.125ZM9.5 1.95312C10.1494 1.95312 10.6719 2.47559 10.6719 3.125C10.6719 3.77441 10.1494 4.29688 9.5 4.29688C8.85059 4.29688 8.32812 3.77441 8.32812 3.125C8.32812 2.47559 8.85059 1.95312 9.5 1.95312ZM15.418 13.2715L8.43555 20.1953C8.20605 20.4248 7.83496 20.4199 7.60547 20.1904L3.57227 16.123C3.34277 15.8936 3.34766 15.5225 3.57715 15.293L4.96387 13.916C5.19336 13.6865 5.56445 13.6914 5.79395 13.9209L8.04004 16.1865L13.2158 11.0498C13.4453 10.8203 13.8164 10.8252 14.0459 11.0547L15.4229 12.4414C15.6523 12.6758 15.6475 13.042 15.418 13.2715Z" fill="black"/>
</svg>
