<svg width="16" height="17" viewBox="0 0 16 17" fill="none" xmlns="http://www.w3.org/2000/svg">
<path d="M8 9C5.7945 9 4 7.2055 4 5C4 2.7945 5.7945 1 8 1C10.2055 1 12 2.7945 12 5C12 7.2055 10.2055 9 8 9ZM8 2C6.3455 2 5 3.3455 5 5C5 6.6545 6.3455 8 8 8C9.6545 8 11 6.6545 11 5C11 3.3455 9.6545 2 8 2Z" fill="black"/>
<path d="M8.2 7.10002H7.8C7.51975 7.09891 7.24728 7.00771 7.02282 6.83989C6.79837 6.67207 6.63383 6.43652 6.5535 6.16802C6.53323 6.10457 6.52585 6.0377 6.53179 5.97135C6.53773 5.905 6.55686 5.84051 6.58807 5.78166C6.61928 5.72281 6.66193 5.67079 6.71353 5.62865C6.76512 5.58652 6.82462 5.55511 6.88851 5.53629C6.95241 5.51747 7.01943 5.5116 7.08563 5.51904C7.15182 5.52648 7.21587 5.54707 7.274 5.5796C7.33213 5.61214 7.38317 5.65596 7.42412 5.70849C7.46508 5.76103 7.49513 5.82122 7.5125 5.88552C7.55 6.01202 7.6685 6.10052 7.8 6.10052H8.2C8.27963 6.10052 8.356 6.06889 8.41231 6.01258C8.46862 5.95628 8.50025 5.87991 8.50025 5.80027C8.50025 5.72064 8.46862 5.64427 8.41231 5.58797C8.356 5.53166 8.27963 5.50002 8.2 5.50002H7.8C7.083 5.50002 6.5 4.91652 6.5 4.20002C6.5 3.48352 7.083 2.90002 7.8 2.90002H8.2C8.7605 2.90002 9.2555 3.25702 9.433 3.78902C9.45479 3.85155 9.46394 3.91779 9.45993 3.98389C9.45591 4.04998 9.4388 4.11462 9.4096 4.17406C9.3804 4.23349 9.33968 4.28653 9.28982 4.33009C9.23995 4.37366 9.18192 4.40689 9.11911 4.42785C9.0563 4.44881 8.98995 4.45708 8.92391 4.45219C8.85787 4.4473 8.79346 4.42934 8.73442 4.39935C8.67538 4.36937 8.62289 4.32795 8.57999 4.27751C8.53708 4.22707 8.50463 4.16861 8.4845 4.10552C8.46479 4.04566 8.42667 3.99355 8.37557 3.95664C8.32448 3.91974 8.26303 3.89992 8.2 3.90002H7.8C7.72044 3.90002 7.64413 3.93163 7.58787 3.98789C7.53161 4.04415 7.5 4.12046 7.5 4.20002C7.5 4.27959 7.53161 4.3559 7.58787 4.41216C7.64413 4.46842 7.72044 4.50002 7.8 4.50002H8.2C8.917 4.50002 9.5 5.08352 9.5 5.80002C9.5 6.51652 8.917 7.10002 8.2 7.10002Z" fill="black"/>
<path d="M8 3.49998C7.8645 3.49998 7.7395 3.44498 7.645 3.35498C7.625 3.32998 7.6 3.30498 7.585 3.27498C7.56518 3.24947 7.54995 3.22071 7.54 3.18998C7.52562 3.16157 7.51535 3.13127 7.5095 3.09998C7.505 3.06498 7.5 3.03498 7.5 2.99998C7.5 2.86998 7.5545 2.73998 7.645 2.64498C7.83 2.45998 8.165 2.45998 8.355 2.64498C8.445 2.73998 8.5 2.86998 8.5 2.99998C8.5 3.03498 8.495 3.06498 8.4895 3.09998C8.48429 3.13136 8.47416 3.16174 8.4595 3.18998C8.44935 3.22062 8.43414 3.24935 8.4145 3.27498C8.3945 3.30498 8.3745 3.32998 8.3545 3.35498C8.26 3.44498 8.13 3.49998 8 3.49998ZM8 7.49998C7.8645 7.49998 7.7395 7.44498 7.645 7.35498C7.625 7.32998 7.6 7.30498 7.585 7.27498C7.56518 7.24947 7.54995 7.22071 7.54 7.18998C7.52562 7.16157 7.51535 7.13127 7.5095 7.09998C7.505 7.06498 7.5 7.03498 7.5 6.99998C7.5 6.86998 7.5545 6.73998 7.645 6.64498C7.83 6.45998 8.165 6.45998 8.355 6.64498C8.445 6.73998 8.5 6.86998 8.5 6.99998C8.5 7.03498 8.495 7.06498 8.4895 7.09998C8.48429 7.13136 8.47416 7.16174 8.4595 7.18998C8.44935 7.22062 8.43414 7.24935 8.4145 7.27498C8.3945 7.30498 8.3745 7.32998 8.3545 7.35498C8.26 7.44498 8.13 7.49998 8 7.49998ZM9 16H1C0.867392 16 0.740215 15.9473 0.646447 15.8535C0.552678 15.7598 0.5 15.6326 0.5 15.5V11C0.5 10.8675 0.5525 10.74 0.6465 10.6465C0.7635 10.529 1.8265 9.49998 3 9.49998C3.972 9.49998 5.226 10.2345 5.6475 10.5H8C8.21885 10.5003 8.43499 10.5485 8.63328 10.6411C8.83158 10.7337 9.00724 10.8685 9.14798 11.0361C9.28872 11.2037 9.39113 11.4 9.44805 11.6113C9.50497 11.8227 9.51502 12.0439 9.4775 12.2595L13.423 10.6155C13.6509 10.5203 13.8988 10.4829 14.1446 10.5067C14.3905 10.5305 14.6266 10.6148 14.832 10.752C15.0377 10.8887 15.2063 11.0742 15.3229 11.292C15.4394 11.5098 15.5003 11.753 15.5 12C15.5 12.0874 15.4771 12.1733 15.4336 12.2491C15.3901 12.3249 15.3275 12.3879 15.252 12.432L9.252 15.932C9.17547 15.9765 9.08853 15.9999 9 16ZM1.5 15H8.8645L14.4345 11.751C14.3957 11.684 14.3419 11.6269 14.2775 11.584C14.2093 11.5377 14.1306 11.5092 14.0486 11.5013C13.9665 11.4933 13.8838 11.5061 13.808 11.5385L9.193 13.4615C9.13183 13.4869 9.06624 13.5 9 13.5H5C4.86739 13.5 4.74021 13.4473 4.64645 13.3535C4.55268 13.2598 4.5 13.1326 4.5 13C4.5 12.8674 4.55268 12.7402 4.64645 12.6464C4.74021 12.5527 4.86739 12.5 5 12.5H8C8.12874 12.4942 8.2503 12.439 8.33936 12.3459C8.42843 12.2527 8.47813 12.1288 8.47813 12C8.47813 11.8711 8.42843 11.7472 8.33936 11.6541C8.2503 11.5609 8.12874 11.5057 8 11.5H5.5C5.4015 11.5 5.3045 11.4705 5.2225 11.4165C4.84 11.1615 3.6935 10.5 3 10.5C2.455 10.5 1.8265 10.94 1.5 11.2195V15Z" fill="black"/>
</svg>
