<svg width="25" height="25" viewBox="0 0 25 25" fill="none" xmlns="http://www.w3.org/2000/svg">
<path d="M25 12.4764C25.0127 19.3635 19.3962 24.9952 12.5091 25C9.53452 25.0021 6.80226 23.9652 4.65514 22.2323C4.09682 21.7817 4.05509 20.9449 4.56245 20.4376L5.13034 19.8697C5.56426 19.4358 6.257 19.3883 6.73775 19.7697C8.31965 21.025 10.3216 21.7742 12.5 21.7742C17.6262 21.7742 21.7742 17.6255 21.7742 12.5C21.7742 7.37375 17.6254 3.22581 12.5 3.22581C10.0396 3.22581 7.80498 4.18191 6.14576 5.74255L8.70392 8.30072C9.21199 8.80879 8.85216 9.67744 8.13371 9.67744H0.806451C0.361038 9.67744 0 9.3164 0 8.87099V1.5437C0 0.825254 0.868648 0.465424 1.37671 0.973439L3.86522 3.46195C6.10932 1.31734 9.1508 0 12.5 0C19.3956 0 24.9872 5.58368 25 12.4764ZM15.8814 16.4474L16.3765 15.8108C16.7867 15.2834 16.6917 14.5234 16.1644 14.1132L14.1129 12.5176V7.25808C14.1129 6.58998 13.5713 6.0484 12.9032 6.0484H12.0968C11.4287 6.0484 10.8871 6.58998 10.8871 7.25808V14.0953L14.1839 16.6596C14.7113 17.0697 15.4713 16.9747 15.8814 16.4474Z" fill="black"/>
</svg>
