<svg width="14" height="14" viewBox="0 0 14 14" fill="none" xmlns="http://www.w3.org/2000/svg">
<g clip-path="url(#clip0_763_673)">
<path d="M10.9375 8.75C10.6071 8.75242 10.2816 8.82965 9.98529 8.97589C9.68902 9.12213 9.42973 9.33358 9.22688 9.59438L5.16688 7.56438C5.2191 7.38069 5.24705 7.19095 5.25 7C5.24705 6.80905 5.2191 6.61932 5.16688 6.43563L9.22688 4.40563C9.42973 4.66642 9.68902 4.87787 9.98529 5.02411C10.2816 5.17035 10.6071 5.24758 10.9375 5.25C11.3701 5.25 11.7931 5.12171 12.1528 4.88134C12.5125 4.64097 12.7929 4.29933 12.9585 3.89962C13.1241 3.49991 13.1674 3.06007 13.083 2.63574C12.9986 2.21141 12.7902 1.82163 12.4843 1.5157C12.1784 1.20978 11.7886 1.00144 11.3643 0.917033C10.9399 0.832628 10.5001 0.875948 10.1004 1.04151C9.70067 1.20708 9.35903 1.48746 9.11866 1.84719C8.87829 2.20692 8.75 2.62985 8.75 3.0625C8.75295 3.25345 8.7809 3.44319 8.83313 3.62688L4.77312 5.65688C4.57027 5.39608 4.31098 5.18463 4.01471 5.03839C3.71844 4.89215 3.39289 4.81492 3.0625 4.8125C2.48234 4.8125 1.92594 5.04297 1.5157 5.4532C1.10547 5.86344 0.875 6.41984 0.875 7C0.875 7.58016 1.10547 8.13656 1.5157 8.5468C1.92594 8.95703 2.48234 9.1875 3.0625 9.1875C3.39289 9.18508 3.71844 9.10785 4.01471 8.96161C4.31098 8.81537 4.57027 8.60392 4.77312 8.34313L8.83313 10.3731C8.71513 10.815 8.7386 11.2828 8.90026 11.7106C9.06191 12.1385 9.3536 12.5049 9.73432 12.7584C10.115 13.0118 10.5656 13.1396 11.0227 13.1237C11.4798 13.1077 11.9204 12.9489 12.2826 12.6696C12.6447 12.3903 12.9102 12.0044 13.0417 11.5664C13.1732 11.1283 13.1641 10.6601 13.0156 10.2275C12.8672 9.79484 12.5869 9.41965 12.2141 9.15463C11.8413 8.88961 11.3949 8.7481 10.9375 8.75ZM10.9375 1.75C11.1971 1.75 11.4508 1.82698 11.6667 1.9712C11.8825 2.11542 12.0508 2.3204 12.1501 2.56023C12.2494 2.80006 12.2754 3.06396 12.2248 3.31856C12.1741 3.57316 12.0491 3.80702 11.8656 3.99058C11.682 4.17414 11.4482 4.29914 11.1936 4.34978C10.939 4.40042 10.6751 4.37443 10.4352 4.27509C10.1954 4.17575 9.99042 4.00753 9.8462 3.79169C9.70198 3.57585 9.625 3.32209 9.625 3.0625C9.625 2.7144 9.76328 2.38056 10.0094 2.13442C10.2556 1.88828 10.5894 1.75 10.9375 1.75ZM3.0625 8.3125C2.80291 8.3125 2.54915 8.23552 2.33331 8.0913C2.11747 7.94709 1.94925 7.7421 1.84991 7.50227C1.75057 7.26244 1.72458 6.99854 1.77522 6.74394C1.82586 6.48934 1.95087 6.25548 2.13442 6.07192C2.31798 5.88837 2.55184 5.76336 2.80644 5.71272C3.06104 5.66208 3.32494 5.68807 3.56477 5.78741C3.8046 5.88675 4.00958 6.05498 4.1538 6.27081C4.29802 6.48665 4.375 6.74041 4.375 7C4.375 7.3481 4.23672 7.68194 3.99058 7.92808C3.74444 8.17422 3.4106 8.3125 3.0625 8.3125ZM10.9375 12.25C10.6779 12.25 10.4242 12.173 10.2083 12.0288C9.99247 11.8846 9.82425 11.6796 9.72491 11.4398C9.62557 11.1999 9.59958 10.936 9.65022 10.6814C9.70086 10.4268 9.82587 10.193 10.0094 10.0094C10.193 9.82587 10.4268 9.70086 10.6814 9.65022C10.936 9.59958 11.1999 9.62557 11.4398 9.72491C11.6796 9.82425 11.8846 9.99248 12.0288 10.2083C12.173 10.4242 12.25 10.6779 12.25 10.9375C12.25 11.2856 12.1117 11.6194 11.8656 11.8656C11.6194 12.1117 11.2856 12.25 10.9375 12.25Z" fill="black"/>
</g>
<defs>
<clipPath id="clip0_763_673">
<rect width="14" height="14" fill="white"/>
</clipPath>
</defs>
</svg>
