<svg width="16" height="17" fill="none" xmlns="http://www.w3.org/2000/svg"><path d="M8 9C5.795 9 4 7.205 4 5s1.795-4 4-4c2.206 0 4 1.795 4 4s-1.794 4-4 4Zm0-7C6.346 2 5 3.345 5 5c0 1.654 1.346 3 3 3 1.655 0 3-1.346 3-3 0-1.655-1.345-3-3-3Z" fill="#000"/><path d="M8.2 7.1h-.4a1.307 1.307 0 0 1-1.247-.932.5.5 0 1 1 .96-.282.302.302 0 0 0 .287.215h.4a.3.3 0 1 0 0-.601h-.4a1.301 1.301 0 0 1 0-2.6h.4c.56 0 1.056.357 1.233.889a.5.5 0 1 1-.948.317A.299.299 0 0 0 8.2 3.9h-.4a.3.3 0 0 0 0 .6h.4a1.301 1.301 0 0 1 0 2.6Z" fill="#000"/><path d="M8 3.5a.515.515 0 0 1-.355-.145c-.02-.025-.045-.05-.06-.08a.278.278 0 0 1-.045-.085.336.336 0 0 1-.03-.09c-.005-.035-.01-.065-.01-.1 0-.13.054-.26.145-.355a.524.524 0 0 1 .71 0c.09.095.145.225.145.355 0 .035-.005.065-.01.1a.303.303 0 0 1-.03.09.29.29 0 0 1-.046.085c-.02.03-.04.055-.06.08A.524.524 0 0 1 8 3.5Zm0 4a.515.515 0 0 1-.355-.145c-.02-.025-.045-.05-.06-.08a.278.278 0 0 1-.045-.085.336.336 0 0 1-.03-.09c-.005-.035-.01-.065-.01-.1 0-.13.054-.26.145-.355a.524.524 0 0 1 .71 0c.09.095.145.225.145.355 0 .035-.005.065-.01.1a.303.303 0 0 1-.03.09.29.29 0 0 1-.046.085c-.02.03-.04.055-.06.08A.524.524 0 0 1 8 7.5ZM9 16H1a.5.5 0 0 1-.5-.5V11a.5.5 0 0 1 .146-.354C.763 10.53 1.826 9.5 3 9.5c.972 0 2.226.735 2.647 1H8a1.502 1.502 0 0 1 1.477 1.76l3.946-1.644A1.498 1.498 0 0 1 15.5 12a.5.5 0 0 1-.248.432l-6 3.5A.502.502 0 0 1 9 16Zm-7.5-1h7.364l5.57-3.249a.505.505 0 0 0-.626-.212L9.193 13.46A.503.503 0 0 1 9 13.5H5a.5.5 0 0 1 0-1h3a.5.5 0 0 0 0-1H5.5a.506.506 0 0 1-.277-.084C4.84 11.161 3.692 10.5 3 10.5c-.545 0-1.173.44-1.5.72V15Z" fill="#000"/></svg>